{"title":"Top.Gear.At.The.Movies.2011.480p.BRRip.Ac3.Xvid.ANALOG","uid":7026457,"size":2172277336,"categoryP":"video","categoryS":"hd___movies","magnet":"?xt=urn:btih:385374786295a6cf8779a5fa4f74b012ac144b5f&amp;dn=Top.Gear.At.The.Movies.2011.480p.BRRip.Ac3.Xvid.ANALOG&amp;tr=udp%3A%2F%2Ftracker.openbittorrent.com%3A80&amp;tr=udp%3A%2F%2Fopen.demonii.com%3A1337&amp;tr=udp%3A%2F%2Ftracker.coppersurfer.tk%3A6969&amp;tr=udp%3A%2F%2Fexodus.desync.com%3A6969","seeders":2,"leechers":0,"uploader":"MrTPB","files":-1,"time":1329030207,"description":"Cover\n &lt;a href=&quot;\nhttp://images.net63.net/short_url/?GANJJ&quot; rel=&quot;nofollow&quot; target=&quot;_NEW&quot;&gt;\nhttp://images.net63.net/short_url/?GANJJ&lt;/a&gt;\n\n\nScreens\n &lt;a href=&quot;\nhttp://images.net63.net/short_url/?FCYXX&quot; rel=&quot;nofollow&quot; target=&quot;_NEW&quot;&gt;\nhttp://images.net63.net/short_url/?FCYXX&lt;/a&gt;\n &lt;a href=&quot;\nhttp://images.net63.net/short_url/?NBJTL&quot; rel=&quot;nofollow&quot; target=&quot;_NEW&quot;&gt;\nhttp://images.net63.net/short_url/?NBJTL&lt;/a&gt;\n &lt;a href=&quot;\nhttp://images.net63.net/short_url/?QGSYY&quot; rel=&quot;nofollow&quot; target=&quot;_NEW&quot;&gt;\nhttp://images.net63.net/short_url/?QGSYY&lt;/a&gt;\n &lt;a href=&quot;\nhttp://images.net63.net/short_url/?XOETL&quot; rel=&quot;nofollow&quot; target=&quot;_NEW&quot;&gt;\nhttp://images.net63.net/short_url/?XOETL&lt;/a&gt;\n &lt;a href=&quot;\nhttp://images.net63.net/short_url/?EEROS&quot; rel=&quot;nofollow&quot; target=&quot;_NEW&quot;&gt;\nhttp://images.net63.net/short_url/?EEROS&lt;/a&gt;\n &lt;a href=&quot;\nhttp://images.net63.net/short_url/?DFYWP&quot; rel=&quot;nofollow&quot; target=&quot;_NEW&quot;&gt;\nhttp://images.net63.net/short_url/?DFYWP&lt;/a&gt;\n\n\n\n\nComplete name                            : C:\\Users\\MrTPB\\Desktop\\Top.Gear.At.The.Movies.2011.480p.BRRip.Ac3.Xvid.ANALOG\\T.G.A.T.M.480P.BRR.ANALOG.avi\n\n\nFormat                                   : AVI\nFormat/Info                              : Audio Video Interleave\nFormat profile                           : OpenDML\nFile size                                : 2.01 GiB\nDuration                                 : 1h 13mn\nOverall bit rate                         : 3 932 Kbps\nWriting library                          : VirtualDub build 32842/release\n\nVideo\nID                                       : 0\nFormat                                   : MPEG-4 Visual\nFormat profile                           : Advanced Simple@L5\nFormat settings, BVOP                    : 1\nFormat settings, QPel                    : No\nFormat settings, GMC                     : No warppoints\nFormat settings, Matrix                  : Default (H.263)\nMuxing mode                              : Packed bitstream\nCodec ID                                 : XVID\nCodec ID/Hint                            : XviD\nDuration                                 : 1h 13mn\nBit rate                                 : 3 471 Kbps\nWidth                                    : 852 pixels\nHeight                                   : 480 pixels\nDisplay aspect ratio                     : 16:9\nFrame rate                               : 25.000 fps\nColor space                              : YUV\nChroma subsampling                       : 4:2:0\nBit depth                                : 8 bits\nScan type                                : Progressive\nCompression mode                         : Lossy\nBits/(Pixel*Frame)                       : 0.340\nStream size                              : 1.78 GiB (88%)\nWriting library                          : XviD 64\n\nAudio\nID                                       : 1\nFormat                                   : AC-3\nFormat/Info                              : Audio Coding 3\nMode extension                           : CM (complete main)\nCodec ID                                 : 2000\nDuration                                 : 1h 13mn\nBit rate mode                            : Constant\nBit rate                                 : 448 Kbps\nChannel(s)                               : 6 channels\nChannel positions                        : Front: L C R, Side: L R, LFE\nSampling rate                            : 48.0 KHz\nBit depth                                : 16 bits\nCompression mode                         : Lossy\nStream size                              : 235 MiB (11%)\nAlignment                                : Aligned on interleaves\nInterleave, duration                     : 40 ms (1.00 video frame)\nInterleave, preload duration             : 512 ms\nSample                                   : Yes\nSource                                   : Top.Gear.At.The.Movies.2011.Bluray.x264.DTS-HDC  THANX \nAs humans, we perceive the world in analog. Everything we see and hear is a continuous transmission of information to our senses.\nanalog.p.2.p@********.com\nGREATINGS TO ALL THE P2P PLACES I LURK AT!!","torrent":{"xt":"urn:btih:385374786295a6cf8779a5fa4f74b012ac144b5f","amp;dn":"Top.Gear.At.The.Movies.2011.480p.BRRip.Ac3.Xvid.ANALOG","amp;tr":["udp%3A%2F%2Ftracker.openbittorrent.com%3A80","udp%3A%2F%2Fopen.demonii.com%3A1337","udp%3A%2F%2Ftracker.coppersurfer.tk%3A6969","udp%3A%2F%2Fexodus.desync.com%3A6969"],"infoHash":"385374786295a6cf8779a5fa4f74b012ac144b5f","infoHashBuffer":{"type":"Buffer","data":[56,83,116,120,98,149,166,207,135,121,165,250,79,116,176,18,172,20,75,95]},"announce":[],"urlList":[]}}